<?xml version="1.0" standalone="no"?>
<!DOCTYPE svg PUBLIC "-//W3C//DTD SVG 20010904//EN"
 "http://www.w3.org/TR/2001/REC-SVG-20010904/DTD/svg10.dtd">
<svg version="1.0" xmlns="http://www.w3.org/2000/svg"
 width="500.000000pt" height="500.000000pt" viewBox="0 0 500.000000 500.000000"
 preserveAspectRatio="xMidYMid meet">
<metadata>
Created by potrace 1.14, written by Peter Selinger 2001-2017
</metadata>
<g transform="translate(0.000000,500.000000) scale(0.100000,-0.100000)"
fill="#000000" stroke="none">
<path d="M1706 4792 c-9 -11 -37 -70 -62 -133 -24 -63 -50 -124 -56 -136 -14
-29 -3 -43 37 -43 38 0 52 14 35 35 -9 11 -8 20 2 42 11 24 19 27 60 28 26 1
51 -1 56 -4 14 -10 20 -35 12 -56 -10 -26 6 -45 39 -45 45 0 55 13 38 46 -8
16 -22 54 -32 84 -21 66 -71 163 -94 185 -16 14 -19 13 -35 -3z m49 -150 c-9
-9 -65 -10 -65 -1 0 3 7 24 16 45 l16 39 20 -39 c11 -21 16 -41 13 -44z"/>
<path d="M2005 4790 c-67 -36 -107 -110 -98 -185 13 -122 172 -174 266 -87 26
25 35 56 19 66 -4 2 -25 -10 -45 -28 -21 -18 -46 -33 -55 -34 -74 -4 -112 39
-112 126 0 46 4 58 30 84 27 26 36 30 67 25 19 -4 42 -15 50 -27 14 -19 42
-28 44 -12 0 4 2 15 4 24 5 27 -39 60 -87 65 -31 3 -54 -2 -83 -17z"/>
<path d="M2258 4792 c-8 -9 -8 -16 0 -24 16 -16 16 -222 1 -250 -16 -30 -1
-35 104 -36 104 0 137 13 137 53 0 29 -10 31 -51 9 -17 -8 -48 -14 -72 -12
l-42 3 -3 48 c-2 28 1 48 7 48 40 5 58 4 72 -2 26 -13 44 8 40 48 -1 9 -19 12
-58 10 -57 -2 -58 -2 -61 28 -6 51 29 59 126 30 18 -6 22 -4 22 16 0 13 -4 29
-8 35 -11 16 -201 13 -214 -4z"/>
<path d="M2727 4804 c-1 -2 -24 -5 -51 -8 -58 -5 -62 -8 -43 -38 19 -28 31
-226 15 -245 -19 -24 3 -34 70 -32 37 1 81 6 98 11 60 16 102 71 110 143 5 39
1 53 -20 86 -14 21 -37 46 -50 54 -21 14 -121 36 -129 29z m86 -59 c39 -17 59
-101 37 -159 -16 -43 -96 -80 -124 -57 -12 10 -23 202 -12 220 7 10 72 8 99
-4z"/>
<path d="M3001 4798 c-25 -9 -26 -15 -7 -34 19 -19 17 -223 -2 -247 -15 -18
-6 -26 37 -31 39 -4 72 17 54 35 -19 19 -17 86 3 93 27 10 33 7 60 -39 20 -36
24 -48 14 -59 -15 -19 15 -36 64 -36 29 0 36 4 36 19 0 11 -5 23 -11 26 -5 4
-22 31 -36 61 l-25 54 26 31 c14 17 26 42 26 55 0 36 -45 74 -89 75 -20 1 -57
2 -83 3 -25 1 -56 -1 -67 -6z m166 -64 c19 -27 -7 -53 -69 -68 -28 -6 -28 -6
-28 45 l0 51 42 -5 c24 -3 47 -12 55 -23z"/>
<path d="M3345 4803 c-30 -7 -40 -20 -27 -36 8 -9 12 -47 11 -98 -1 -46 -1
-93 0 -105 1 -20 53 -84 69 -84 4 -1 32 -3 62 -6 52 -5 57 -4 87 26 42 41 51
71 47 160 -2 41 2 88 8 103 14 36 -2 50 -51 43 -45 -7 -46 -10 -28 -49 22 -46
19 -189 -5 -213 -25 -25 -84 -22 -111 4 -19 19 -21 31 -19 104 2 53 9 91 18
106 26 39 -2 59 -61 45z"/>
<path d="M3678 4793 c-8 -10 -7 -18 4 -31 9 -9 14 -28 13 -42 -2 -14 -4 -61
-5 -105 -2 -56 -7 -85 -18 -98 -14 -16 -14 -19 -2 -27 19 -12 77 -7 92 8 9 9
7 13 -5 18 -14 5 -17 20 -16 88 l0 81 36 -77 c46 -101 61 -102 108 -8 19 39
37 70 39 70 2 0 4 -30 5 -67 1 -49 -3 -71 -15 -85 -21 -23 -17 -27 33 -32 50
-4 72 6 55 27 -17 20 -19 232 -2 252 18 22 -3 43 -40 41 -36 -3 -46 -15 -84
-106 -17 -39 -33 -70 -36 -70 -4 0 -19 33 -35 73 -15 39 -34 79 -42 87 -17 19
-70 21 -85 3z"/>
<path d="M1101 4788 c-14 -7 -34 -28 -45 -47 -19 -32 -19 -34 -1 -67 14 -26
31 -39 74 -55 31 -11 63 -27 72 -35 33 -30 -4 -74 -62 -74 -11 0 -36 16 -56
35 -40 39 -48 42 -57 19 -16 -42 53 -94 126 -94 40 0 52 5 84 35 33 31 36 39
31 72 -8 48 -30 68 -97 91 -50 17 -55 22 -58 50 -5 53 53 57 102 7 21 -21 26
-22 36 -10 38 46 -86 106 -149 73z"/>
<path d="M1320 4785 c-7 -9 -6 -16 4 -24 17 -14 22 -220 6 -251 -15 -28 16
-42 64 -29 38 10 43 18 25 36 -6 6 -13 24 -15 41 -5 28 -2 32 23 38 58 13 69
17 100 40 54 41 54 116 0 146 -30 16 -194 18 -207 3z m178 -48 c35 -28 -18
-97 -75 -97 -15 0 -18 8 -18 53 -1 37 4 54 15 59 18 7 60 0 78 -15z"/>
<path d="M1068 4422 l-48 -3 -1 -1007 c0 -554 -2 -1106 -4 -1227 -3 -121 -4
-236 -3 -255 1 -49 1 -159 0 -195 -1 -16 -2 -115 -1 -220 0 -104 0 -215 -1
-245 -1 -119 5 -260 11 -260 20 0 37 71 36 153 0 48 2 90 6 93 3 3 52 7 109 8
89 3 158 15 158 30 0 2 -49 3 -110 2 -60 -2 -114 0 -120 4 -6 4 41 54 106 116
124 115 177 166 259 243 28 26 60 53 71 59 14 7 85 11 194 11 94 0 175 2 178
5 14 15 -19 19 -165 18 -86 0 -160 1 -164 4 -5 2 13 24 39 47 26 23 49 45 52
49 3 4 51 14 105 22 55 9 116 18 137 21 43 7 47 2 55 -64 4 -40 2 -52 -14 -68
-52 -52 -95 -134 -102 -192 -8 -67 -15 -77 -83 -127 -38 -28 -75 -43 -161 -64
-122 -31 -348 -133 -424 -192 -24 -18 -69 -72 -102 -120 -62 -91 -76 -138 -67
-222 3 -28 1 -35 -6 -25 -7 10 -8 4 -3 -21 10 -47 10 -135 1 -187 l-8 -43
1501 0 1501 0 1 118 c1 64 3 145 5 179 2 53 -2 72 -31 131 -18 37 -48 86 -66
107 -80 91 -295 234 -413 275 -32 11 -90 37 -129 58 -40 22 -98 45 -130 52
-74 17 -87 35 -87 120 0 36 -4 81 -10 100 -6 22 -6 38 0 44 7 7 10 4 10 -7 0
-18 33 -21 247 -17 100 1 120 -5 169 -54 32 -31 242 -229 344 -325 63 -58 73
-52 -97 -53 -57 0 -103 -4 -103 -8 0 -17 53 -28 139 -26 51 0 97 -2 102 -5 6
-3 11 -53 12 -110 2 -73 8 -113 19 -134 15 -27 16 103 16 1690 l0 1720 -1441
0 c-793 0 -1463 -1 -1489 -3z m114 -66 c5 -9 99 -151 208 -316 110 -165 200
-303 200 -305 0 -3 -119 -5 -265 -5 -205 0 -265 3 -266 13 -4 56 1 618 5 625
10 16 108 6 118 -12z m866 7 c4 -6 30 -111 57 -232 28 -122 53 -221 56 -221 3
0 11 15 17 33 8 26 10 28 11 9 1 -12 -13 -36 -30 -54 -32 -34 -33 -47 -14
-135 l8 -33 -64 0 c-366 -3 -442 -1 -455 12 -31 31 -400 624 -391 629 4 3 186
6 403 5 293 -1 397 -4 402 -13z m875 7 c3 -3 -15 -104 -40 -226 -45 -216 -45
-221 -27 -242 20 -24 10 -60 105 353 11 50 22 97 25 105 3 14 54 15 406 15
353 0 403 -2 400 -15 -4 -16 -366 -596 -387 -618 -11 -12 -144 -15 -522 -12
-34 0 -41 3 -38 18 17 96 17 122 -3 154 -15 25 -22 58 -26 132 -6 107 -13 124
-74 184 -66 64 -219 115 -319 106 -74 -6 -172 -75 -209 -146 -9 -17 -19 -60
-23 -97 -9 -80 -12 -74 -46 104 -15 77 -29 150 -32 162 -5 20 -1 22 53 25 95
5 752 3 757 -2z m1035 -318 l2 -322 -256 0 c-201 0 -255 3 -251 13 9 23 400
612 414 624 8 6 31 10 51 9 l37 -2 3 -322z m-1501 108 c53 -36 98 -107 118
-188 17 -71 40 -104 82 -116 28 -9 46 -39 62 -103 12 -48 11 -56 -6 -85 -25
-44 -63 -49 -100 -12 -29 29 -29 30 36 66 65 36 48 72 -31 64 -49 -5 -93 -27
-108 -57 -15 -27 -12 -95 6 -133 19 -38 15 -60 -14 -75 -31 -16 -72 21 -72 65
0 40 -2 41 -40 13 -28 -21 -29 -21 -66 -3 -41 20 -89 82 -97 124 -7 34 13 69
62 108 23 18 41 39 41 46 0 8 -14 47 -31 86 -24 57 -29 81 -24 109 10 55 42
100 78 110 47 12 61 10 104 -19z m-270 -172 c-3 -8 -6 -5 -6 6 -1 11 2 17 5
13 3 -3 4 -12 1 -19z m-563 -309 c29 -30 275 -408 268 -412 -4 -3 -87 -4 -184
-3 l-177 1 -42 40 c-23 22 -49 47 -59 55 -9 8 -76 71 -149 140 -73 69 -148
139 -167 156 -18 17 -32 33 -29 35 2 3 121 4 265 4 213 -1 263 -4 274 -16z
m578 -18 c16 -17 26 -36 23 -41 -3 -5 -1 -11 4 -14 5 -4 13 -32 17 -64 4 -31
10 -59 15 -62 12 -8 -27 -87 -58 -116 -34 -32 -127 -79 -253 -129 -195 -77
-279 -135 -336 -232 -43 -72 -50 -110 -59 -323 -4 -82 -13 -151 -26 -200 -14
-48 -22 -106 -22 -162 -1 -60 -5 -88 -13 -88 -6 0 -105 -38 -219 -85 -115 -47
-210 -83 -213 -80 -9 9 -4 167 6 174 5 3 101 6 211 5 111 -1 204 2 206 6 4 6
-167 11 -382 12 -47 1 -51 9 -44 81 3 35 5 37 36 37 19 0 37 5 41 12 5 8 -3 9
-29 5 -23 -3 -39 -1 -44 6 -7 11 -6 318 2 325 2 2 38 -6 80 -18 42 -12 79 -19
82 -16 3 3 -16 11 -43 17 -74 19 -35 24 176 23 104 0 190 2 190 5 0 4 -37 21
-83 40 -45 19 -104 44 -132 56 -27 12 -87 37 -132 55 -46 19 -83 37 -83 40 0
9 423 6 438 -3 8 -5 12 -3 12 7 0 9 -5 16 -10 16 -9 0 -206 120 -394 241 l-69
44 59 3 c32 2 132 2 221 0 l162 -3 65 -64 c36 -36 68 -62 72 -58 4 3 -19 31
-50 61 -31 30 -56 58 -56 61 0 3 78 5 173 5 96 -1 186 2 202 6 27 7 28 8 7 15
-22 8 -46 43 -200 286 -89 140 -90 142 -63 145 14 2 129 3 255 2 l229 0 29
-33z m1163 27 c7 -6 -222 -372 -252 -405 -18 -18 -30 -21 -97 -20 -73 2 -94
-4 -60 -17 9 -3 40 -6 70 -6 58 0 59 -1 44 -30 -17 -32 5 -31 29 1 l22 30 177
-2 177 -1 -94 -89 c-51 -50 -90 -93 -87 -96 6 -6 29 14 110 92 12 11 40 37 63
57 l43 38 210 0 c115 -1 210 -4 210 -8 0 -4 -48 -36 -105 -72 -362 -225 -330
-207 -390 -207 -30 1 -54 -3 -52 -8 1 -6 17 -9 35 -9 38 2 41 -6 10 -25 -13
-8 -33 -21 -45 -29 -22 -13 -22 -13 -22 20 3 95 -79 164 -361 306 -153 76
-248 145 -275 199 -14 29 -14 35 0 62 25 49 34 45 20 -8 -10 -41 -11 -53 0
-67 11 -15 16 -1 40 102 43 190 44 192 62 196 28 5 513 2 518 -4z m585 1 c0
-4 -223 -219 -301 -289 -9 -8 -44 -42 -78 -75 l-62 -60 -184 -1 c-102 -1 -185
1 -185 3 0 3 61 99 136 213 98 150 143 210 158 212 39 6 516 3 516 -3z m-2768
-131 c56 -53 112 -105 124 -115 68 -58 184 -167 184 -172 0 -3 -97 -6 -215 -6
l-215 0 0 198 c0 114 4 197 9 195 5 -1 56 -47 113 -100z m1601 87 c-3 -9 -8
-14 -10 -11 -3 3 -2 9 2 15 9 16 15 13 8 -4z m1173 -370 c-2 -7 -70 -10 -197
-9 -107 1 -199 2 -206 3 -6 1 14 25 45 54 31 28 84 77 117 108 33 31 101 93
150 137 l90 81 3 -182 c1 -100 1 -186 -2 -192z m-1527 231 c8 -10 9 -16 2 -21
-14 -8 -53 13 -46 26 9 13 31 11 44 -5z m159 -1 c-4 -11 -28 -16 -28 -6 0 12
13 22 23 18 5 -1 7 -7 5 -12z m-48 -70 c-33 -19 -101 -19 -126 0 -17 13 -11
14 66 14 79 0 83 -1 60 -14z m-20 -121 c0 -17 -46 -19 -56 -2 -11 17 26 40 43
27 7 -6 13 -18 13 -25z m-245 -54 c11 -18 13 -80 2 -87 -15 -9 -59 -13 -80 -7
-9 3 -22 14 -28 25 -20 39 83 107 106 69z m-1085 -108 c253 -154 314 -192 310
-193 -3 -1 -101 -2 -219 -3 -145 -2 -214 1 -217 9 -4 10 -8 171 -5 233 0 18 4
31 9 29 4 -3 59 -36 122 -75z m2770 -122 l-5 -75 -207 0 c-115 0 -208 2 -208
5 0 5 94 64 198 125 52 30 152 92 182 113 l35 24 5 -59 c3 -32 3 -92 0 -133z
m-1780 75 c14 -3 65 -8 114 -10 95 -6 122 -16 164 -64 40 -46 63 -101 79 -189
22 -121 22 -150 -3 -207 -11 -28 -20 -63 -18 -78 4 -36 37 -89 76 -122 23 -20
31 -34 30 -58 -2 -68 -47 -106 -96 -80 -37 19 -99 21 -120 4 -9 -8 -16 -23
-16 -34 0 -31 -45 -100 -78 -119 -28 -17 -30 -17 -46 1 -14 16 -15 22 -3 52
16 40 15 82 -3 104 -16 19 -44 19 -60 0 -21 -25 -47 -18 -59 17 -6 17 -8 35
-4 39 5 4 35 9 68 11 76 5 102 23 151 106 24 41 46 67 63 73 90 31 103 60 40
88 -41 19 -45 19 -72 3 -16 -9 -37 -33 -48 -53 -26 -51 -95 -116 -133 -125
-96 -23 -135 6 -232 173 -47 83 -97 133 -130 133 -22 0 -72 -50 -83 -83 -6
-18 -13 -61 -16 -97 -8 -98 -69 -202 -94 -162 -7 12 -13 111 -14 222 -1 76 31
181 89 291 52 99 77 123 161 150 70 22 73 22 92 5 19 -18 21 -18 53 3 33 20
75 22 148 6z m1734 -176 c3 -3 -11 -11 -32 -19 -20 -7 -104 -42 -187 -77 -188
-81 -197 -84 -273 -84 -34 0 -60 -4 -57 -8 3 -5 17 -8 31 -6 14 1 31 -4 38
-11 8 -7 17 -10 20 -7 4 4 14 9 24 11 34 8 414 7 419 -1 3 -5 17 -7 31 -5 l27
3 3 -162 2 -163 -27 -1 -28 -1 28 -11 c25 -10 27 -15 27 -63 l0 -52 -47 -7
c-39 -6 -280 -8 -451 -3 -18 1 -37 -3 -42 -8 -5 -5 13 -10 45 -11 31 -2 72
-11 94 -23 22 -11 111 -49 198 -86 87 -36 161 -69 165 -72 4 -4 -88 -7 -205
-7 l-212 0 -49 28 c-56 31 -76 29 -25 -2 19 -12 32 -21 29 -22 -3 -1 -20 -2
-38 -4 l-32 -2 1 91 c3 144 -11 304 -32 386 -26 99 -33 140 -22 140 5 0 9 15
9 33 0 17 3 57 7 87 8 61 27 83 107 123 42 21 57 22 247 22 111 0 204 -3 207
-6z m-2627 -90 c111 -46 200 -85 198 -87 -5 -6 -416 -4 -422 1 -4 4 -7 127 -4
166 1 7 7 11 14 8 6 -3 103 -43 214 -88z m2674 39 c2 -24 3 -62 1 -85 l-3 -43
-206 0 c-114 0 -204 2 -201 6 8 7 380 162 394 163 7 1 13 -17 15 -41z m-725
-209 c17 -35 30 -141 28 -234 -1 -66 -37 -189 -65 -226 l-18 -24 6 42 c5 38 3
42 -23 56 -45 23 -64 50 -85 118 -25 85 -24 130 5 187 54 105 121 141 152 81z
m-287 -341 c-36 -90 -42 -109 -34 -116 13 -14 108 -2 147 18 21 11 46 20 55
20 28 0 1 -20 -78 -56 -117 -53 -126 -91 -22 -93 30 0 58 -3 61 -6 12 -12 -11
-17 -95 -21 -97 -4 -96 -4 -172 -27 -30 -9 -64 -17 -75 -17 -12 0 -37 -9 -57
-19 l-36 -20 -22 29 c-24 34 -103 90 -125 90 -9 0 -22 -13 -30 -29 -9 -16 -24
-31 -34 -33 -22 -6 -131 25 -117 34 6 3 64 20 130 38 66 17 127 38 136 46 32
28 131 7 162 -35 22 -31 35 -31 71 3 24 22 34 38 30 49 -3 10 12 48 37 94 51
94 57 103 75 103 11 0 9 -12 -7 -52z m-200 -43 c36 -59 36 -71 1 -60 -14 4
-32 29 -50 68 -49 103 -15 98 49 -8z m-850 -1 c23 -62 26 -83 11 -85 -5 -1
-16 -2 -22 -3 -15 -2 -57 14 -59 23 -11 50 9 121 34 121 8 0 24 -25 36 -56z
m131 -64 c33 -44 66 -80 73 -80 7 0 29 11 50 25 l37 26 -6 -46 c-9 -65 0 -73
122 -105 50 -12 94 -64 101 -118 3 -21 9 -41 14 -46 32 -34 -12 -34 -81 1
-107 53 -380 350 -380 413 0 19 9 10 70 -70z m200 28 c0 -19 -18 -43 -25 -36
-4 3 -2 16 5 27 12 24 20 27 20 9z m1728 -92 c2 -48 -1 -86 -6 -84 -166 65
-391 162 -388 167 2 3 91 6 198 5 l193 0 3 -88z m-2454 -32 c-1 -52 -3 -96 -5
-98 -20 -16 -433 -266 -435 -263 -4 3 -6 135 -5 223 l1 51 203 1 c237 0 227 0
227 10 0 5 -81 8 -180 7 -99 0 -180 2 -180 6 0 6 347 157 366 158 7 1 10 -31
8 -95z m342 41 c36 -8 106 -54 99 -65 -11 -18 -39 -11 -112 27 -70 35 -88 58
-37 48 13 -3 36 -7 50 -10z m1841 -245 c98 -62 195 -123 215 -134 21 -12 38
-24 38 -28 0 -5 -96 -8 -212 -8 l-213 0 -73 68 -73 67 9 60 c6 33 8 68 6 78
-3 16 4 17 61 13 62 -4 71 -8 242 -116z m270 -12 c1 -71 -1 -128 -4 -128 -7 0
-413 250 -413 254 0 1 93 2 208 2 l207 -1 2 -127z m-851 100 c15 -23 -20 -36
-151 -54 -16 -2 -39 -6 -50 -8 -179 -34 -253 0 -102 47 65 20 104 25 189 26
71 1 109 -3 114 -11z m-1609 -24 c-7 -39 9 -87 35 -104 13 -8 44 -17 71 -20
l47 -5 -61 -52 -61 -53 -209 0 c-115 0 -209 3 -208 8 0 5 373 247 388 251 2 1
1 -11 -2 -25z m1035 -30 c22 -14 5 -26 -28 -21 -41 7 -49 12 -40 26 6 9 50 6
68 -5z m901 -154 c20 -19 37 -38 37 -42 0 -4 -70 -8 -157 -8 -151 0 -194 8
-96 18 77 7 116 25 133 59 17 35 16 35 83 -27z m-807 -25 c30 -19 30 -30 0
-60 -29 -29 -95 -50 -131 -41 -24 6 -95 71 -95 87 0 4 17 14 38 23 45 20 152
15 188 -9z m-493 -85 c95 -54 101 -56 202 -66 95 -9 109 -9 191 0 39 4 91 9
115 11 24 1 76 6 115 10 77 8 89 1 73 -43 -11 -30 -34 -37 -62 -19 -15 10 -37
13 -67 10 -50 -6 -66 -6 -190 -2 -58 2 -93 -1 -110 -11 -16 -9 -52 -13 -104
-11 -74 2 -81 0 -107 -25 -29 -28 -34 -26 -41 21 -2 14 3 20 20 21 40 2 38 15
-11 59 -44 41 -72 54 -140 69 -15 4 -25 11 -22 16 13 20 54 8 138 -40z m-641
25 c-3 -5 -26 -28 -51 -50 -24 -22 -56 -51 -71 -65 -15 -14 -64 -59 -110 -100
-45 -41 -97 -88 -115 -105 -17 -16 -44 -41 -58 -54 l-27 -24 0 204 0 205 219
0 c148 0 217 -4 213 -11z m2466 -178 c3 -216 12 -206 -96 -106 -48 45 -194
179 -289 265 -12 12 -21 23 -18 26 2 2 93 4 202 4 l198 -1 3 -188z m-1997 63
c20 -11 24 -36 10 -59 -8 -13 -12 -13 -26 -1 -10 8 -21 23 -25 35 -13 34 4 44
41 25z m700 -91 c11 -8 10 -12 -5 -24 -16 -12 -103 -48 -188 -78 -11 -4 -18
-17 -18 -32 0 -18 -5 -25 -20 -25 -11 0 -20 4 -20 10 0 19 -63 28 -99 13 -53
-21 -62 -32 -50 -55 27 -51 -28 -30 -61 23 -14 23 -47 57 -73 76 -26 20 -46
37 -43 40 2 2 35 -5 74 -16 77 -23 127 -27 138 -9 7 11 -22 41 -49 51 -6 2 -9
7 -6 11 4 4 28 -1 55 -10 66 -23 130 -21 157 4 12 11 29 22 37 25 25 8 157 5
171 -4z m-680 -45 c15 -15 33 -40 40 -58 7 -17 27 -54 44 -81 29 -46 35 -75
15 -75 -4 0 -32 22 -61 50 -55 50 -118 76 -165 66 -11 -2 -27 0 -35 5 -22 14
8 29 51 24 20 -2 43 1 51 6 12 8 11 12 -5 24 -11 8 -26 15 -33 15 -17 0 -17
32 0 49 17 18 66 6 98 -25z m1227 -26 c144 -44 179 -84 111 -126 -15 -9 -24
-7 -50 16 -28 23 -42 27 -98 27 l-66 0 -19 -43 c-17 -36 -30 -47 -83 -73 -34
-16 -66 -35 -70 -42 -4 -7 -44 -41 -88 -74 -94 -72 -157 -91 -325 -96 -160 -5
-450 -79 -618 -157 -93 -44 -233 -125 -263 -153 -42 -39 -69 -46 -195 -46
-182 0 -226 22 -203 101 18 65 11 139 -21 202 -17 32 -30 73 -30 89 0 72 197
203 369 246 111 28 125 27 169 -13 41 -38 40 -49 -3 -38 -48 13 -121 -7 -155
-41 -17 -17 -31 -38 -31 -46 -5 -62 -5 -78 3 -93 12 -25 16 -23 78 23 30 23
74 50 97 61 97 43 240 51 346 18 84 -26 137 -27 247 -4 59 12 134 18 245 18
151 1 163 2 210 27 94 48 91 98 -8 134 -99 35 -62 44 68 17 57 -12 97 0 163
45 91 64 86 63 220 21z m320 -231 c143 -108 217 -194 229 -269 5 -36 -18 -85
-68 -140 -37 -41 -48 -71 -31 -82 18 -11 62 -14 97 -6 52 12 40 -11 -13 -27
-82 -23 -112 -24 -184 -2 -62 19 -94 25 -160 28 -24 1 -23 22 2 28 21 6 35 36
25 53 -3 6 -18 16 -33 24 -26 13 -43 17 -142 31 -145 20 -187 36 -277 101 -36
26 -80 28 -92 5 -17 -32 -13 -51 19 -83 17 -17 29 -32 27 -34 -5 -5 -260 43
-349 66 -43 11 -80 20 -83 20 -4 0 -3 5 0 11 10 15 47 28 160 54 55 13 125 31
155 39 68 19 113 26 210 30 41 2 90 9 108 16 65 24 226 -13 308 -72 49 -35 78
-34 82 3 5 42 -95 119 -173 133 -55 10 -257 81 -258 91 -3 15 46 35 90 37 21
1 67 -1 103 -6 59 -6 68 -5 84 13 11 12 27 21 36 21 9 0 67 -38 128 -83z
m-1059 -357 c31 -9 60 -12 198 -24 50 -5 193 -40 223 -55 14 -8 23 -35 35
-113 5 -32 3 -38 -12 -39 -73 -3 -793 -1 -794 2 -3 8 24 148 30 157 3 6 40 26
81 46 62 30 86 36 140 36 36 0 80 -4 99 -10z m869 -185 c67 -21 122 -41 122
-44 0 -5 -415 -7 -457 -2 -6 0 -17 27 -23 59 -6 31 -13 64 -16 73 -4 15 13 12
123 -15 71 -18 183 -50 251 -71z m-1267 26 c-9 -33 -20 -63 -24 -68 -9 -8
-437 -12 -437 -3 0 6 192 62 343 101 60 15 111 30 114 33 17 16 18 -10 4 -63z
m-940 -7 c70 -53 67 -66 -13 -68 l-53 -1 -3 58 c-2 31 -1 57 2 57 3 0 33 -21
67 -46z m2829 -22 l0 -49 -39 1 c-22 1 -43 5 -47 9 -8 7 63 84 79 86 4 1 7
-21 7 -47z"/>
<path d="M2294 3778 c-40 -10 -50 -35 -27 -60 44 -48 114 -62 153 -30 61 49
-32 115 -126 90z m56 -28 c0 -5 -6 -10 -14 -10 -8 0 -18 5 -21 10 -3 6 3 10
14 10 12 0 21 -4 21 -10z"/>
<path d="M1188 2293 c-10 -2 -18 -8 -18 -13 0 -5 14 -4 30 1 45 16 36 25 -12
12z"/>
<path d="M2317 3019 c-25 -15 -16 -47 30 -107 19 -26 43 -62 51 -80 17 -35 35
-38 40 -6 1 10 -10 60 -26 109 -24 80 -30 90 -52 92 -14 2 -33 -2 -43 -8z"/>
<path d="M2053 2992 c-11 -9 -38 -43 -59 -76 -21 -32 -43 -64 -48 -71 -15 -20
-1 -40 50 -70 53 -31 78 -26 81 16 0 13 4 65 8 115 8 98 1 115 -32 86z"/>
<path d="M3855 2713 c-11 -3 -24 -9 -29 -14 -5 -5 5 -4 24 1 51 15 55 25 5 13z"/>
<path d="M3850 2286 c42 -17 50 -19 50 -8 0 5 -6 9 -12 9 -7 0 -26 3 -43 7
-28 6 -27 5 5 -8z"/>
<path d="M2458 1769 c-37 -21 18 -58 56 -37 21 12 21 34 0 42 -22 8 -36 7 -56
-5z"/>
<path d="M3164 1655 c7 -28 81 -146 98 -156 7 -4 16 -5 20 -3 8 5 -107 184
-118 184 -4 0 -3 -11 0 -25z"/>
<path d="M1803 1570 c-17 -25 -45 -69 -62 -98 -26 -45 -28 -51 -11 -42 39 21
114 138 108 168 -2 12 -12 4 -35 -28z"/>
<path d="M1063 522 c-26 -4 -36 -27 -18 -42 18 -15 9 -215 -11 -247 -16 -25
-4 -33 51 -33 38 0 51 12 31 29 -9 7 -13 37 -14 93 l0 83 34 -75 c32 -69 47
-89 66 -90 4 0 26 35 47 78 l40 77 1 -76 c0 -57 -4 -80 -15 -89 -21 -18 -5
-26 52 -29 43 -1 45 0 37 21 -14 41 -16 240 -3 265 15 28 10 34 -30 35 -42 1
-52 -9 -91 -102 -19 -44 -37 -77 -40 -73 -4 5 -19 40 -34 78 -38 95 -49 106
-103 97z"/>
<path d="M1460 515 c-6 -7 -6 -24 -2 -41 11 -37 4 -202 -9 -225 -15 -29 -11
-37 24 -45 38 -8 185 -12 196 -4 4 3 11 17 15 33 7 31 -14 47 -38 28 -8 -7
-31 -12 -53 -13 -69 -2 -69 -2 -67 45 1 23 2 45 3 49 1 6 59 5 86 -2 24 -6 35
2 35 24 0 29 -21 48 -39 36 -13 -7 -49 -5 -78 5 -11 4 -9 47 2 65 7 12 86 0
110 -16 26 -17 37 -8 30 26 -6 32 -17 37 -88 39 -34 1 -74 3 -89 5 -16 2 -32
-2 -38 -9z"/>
<path d="M3481 520 c-75 -18 -125 -82 -124 -160 1 -95 56 -157 146 -164 119
-10 205 131 147 243 -32 63 -102 97 -169 81z m95 -67 c40 -51 33 -156 -13
-193 -26 -20 -77 -26 -100 -12 -41 26 -53 145 -20 193 35 49 99 55 133 12z"/>
<path d="M1758 513 c-21 -5 -23 -14 -7 -30 18 -18 18 -232 1 -250 -11 -10 -12
-17 -4 -25 15 -15 153 -16 188 -2 51 21 92 74 102 131 8 47 7 55 -18 95 -39
61 -74 78 -167 82 -43 1 -86 1 -95 -1z m155 -48 c57 -12 80 -125 38 -184 -20
-29 -78 -51 -106 -41 -18 6 -20 17 -20 114 -1 84 2 109 13 115 15 8 20 8 75
-4z"/>
<path d="M2113 510 c-25 -10 -30 -26 -11 -32 16 -6 22 -227 6 -246 -25 -29 32
-47 90 -28 l22 7 -20 17 c-18 15 -21 30 -24 127 -3 88 0 114 12 128 8 9 13 19
11 21 -11 10 -67 14 -86 6z"/>
<path d="M2285 509 c-4 -5 -9 -21 -11 -35 -4 -25 -3 -26 23 -20 15 4 40 10 55
13 l26 5 -5 -114 c-4 -84 -9 -118 -21 -131 -14 -16 -14 -19 -2 -27 20 -13 87
-12 95 1 4 5 0 18 -9 28 -9 10 -14 20 -12 22 2 2 7 48 10 102 3 54 8 102 11
108 4 5 14 5 26 -2 28 -15 49 -5 42 20 -3 12 -8 21 -12 22 -67 12 -211 17
-216 8z"/>
<path d="M2674 512 c-11 -7 -124 -283 -124 -302 0 -5 21 -10 46 -10 43 0 46 1
39 23 -9 29 -8 58 2 68 4 4 28 9 52 12 33 4 48 0 62 -14 22 -22 24 -40 7 -57
-6 -6 -9 -14 -5 -18 10 -10 87 -12 93 -2 12 19 -117 292 -142 302 -19 7 -17 7
-30 -2z m39 -117 c9 -20 17 -38 17 -40 0 -3 -18 -5 -39 -5 l-40 0 17 40 c9 22
20 40 23 40 3 0 13 -16 22 -35z"/>
<path d="M2895 512 c-32 -4 -45 -16 -45 -43 0 -24 30 -32 50 -14 9 8 26 15 38
15 21 0 22 -5 23 -77 0 -43 3 -89 5 -103 3 -13 -1 -37 -7 -53 -14 -34 -10 -39
36 -39 47 0 64 15 47 42 -15 25 -17 240 -2 240 6 0 24 -7 41 -15 33 -18 49
-13 49 14 0 34 -24 42 -117 39 -48 -2 -101 -5 -118 -6z"/>
<path d="M3217 512 c-25 -3 -28 -7 -22 -25 13 -41 12 -221 -2 -249 -16 -33 -4
-43 47 -39 44 3 57 15 40 36 -18 22 -21 190 -4 233 12 29 12 34 -4 39 -25 9
-25 9 -55 5z"/>
<path d="M3721 503 c-6 -12 -5 -20 7 -29 20 -14 28 -206 10 -242 -14 -27 -1
-40 35 -36 12 1 30 3 40 3 20 1 23 29 4 37 -9 3 -15 26 -16 66 -1 34 -2 64 -3
67 -2 20 3 41 10 41 4 0 41 -48 82 -105 41 -57 80 -105 86 -105 21 0 25 32 18
152 -5 87 -4 122 5 132 18 22 5 36 -34 36 -40 0 -50 -12 -35 -40 6 -11 10 -46
8 -77 l-3 -56 -55 71 c-61 77 -75 89 -119 97 -22 4 -33 0 -40 -12z"/>
</g>
</svg>
